<?xml version="1.0" standalone="no"?><!DOCTYPE svg PUBLIC "-//W3C//DTD SVG 1.1//EN" "http://www.w3.org/Graphics/SVG/1.1/DTD/svg11.dtd"><svg t="1742187545886" class="icon" viewBox="0 0 1024 1024" version="1.1" xmlns="http://www.w3.org/2000/svg" p-id="1480" width="256" height="256" xmlns:xlink="http://www.w3.org/1999/xlink"><path d="M126.553813 860.810291l180.797739-327.47538-180.797739-327.47538 135.596258 0 180.789553 327.47538L262.15007 860.810291 126.553813 860.810291 126.553813 860.810291z" p-id="1481" fill="#0a9ccd"></path><path d="M307.351552 860.810291l180.78239-327.47538L307.351552 205.860555l135.596258 0 361.579105 654.949736L668.929634 860.810291l-112.987331-204.671473-112.995517 204.671473L307.351552 860.810291 307.351552 860.810291z" p-id="1482" fill="#0a9ccd"></path><path d="M744.258273 669.785629l-60.260455-109.158119 210.915687 0 0 109.158119L744.258273 669.785629 744.258273 669.785629z" p-id="1483" fill="#0a9ccd"></path><path d="M653.863497 506.053568l-60.268642-109.158119 301.31865-0.008186 0 109.167329L653.863497 506.054591 653.863497 506.053568z" p-id="1484" fill="#0a9ccd"></path></svg>